<svg width="147" height="46" viewBox="0 0 147 46" fill="none" xmlns="http://www.w3.org/2000/svg">
<path d="M0.0320003 36V2.736H14.96V6.432H4.352V16.752H13.952V20.352H4.352V32.304H15.728V36H0.0320003Z" fill="#EB5252"/>
<path d="M18.0826 19.68H26.9626V23.568H18.0826V19.68ZM46.5969 35.28C46.5969 37.072 46.3569 38.576 45.8769 39.792C45.4289 41.04 44.8049 42.048 44.0049 42.816C43.2049 43.584 42.2609 44.144 41.1729 44.496C40.1169 44.848 38.9809 45.024 37.7649 45.024C36.7409 45.024 35.7169 44.912 34.6929 44.688C33.6689 44.464 32.7249 44.128 31.8609 43.68L32.7249 40.224C33.3009 40.544 34.0049 40.832 34.8369 41.088C35.6689 41.344 36.5329 41.472 37.4289 41.472C38.9969 41.472 40.2289 41.024 41.1249 40.128C42.0209 39.232 42.4689 37.696 42.4689 35.52V34.32C41.9569 34.544 41.4129 34.736 40.8369 34.896C40.2609 35.024 39.6049 35.088 38.8689 35.088C35.8609 35.088 33.6529 34.064 32.2449 32.016C30.8689 29.936 30.1809 27.008 30.1809 23.232C30.1809 21.216 30.3569 19.408 30.7089 17.808C31.0929 16.176 31.6689 14.8 32.4369 13.68C33.2369 12.528 34.2609 11.664 35.5089 11.088C36.7569 10.48 38.2769 10.176 40.0689 10.176C41.2529 10.176 42.4049 10.304 43.5249 10.56C44.6769 10.784 45.7009 11.088 46.5969 11.472V35.28ZM42.4689 14.16C42.0209 14.032 41.5889 13.952 41.1729 13.92C40.7569 13.856 40.3729 13.824 40.0209 13.824C38.1009 13.824 36.6929 14.56 35.7969 16.032C34.9329 17.504 34.5009 19.904 34.5009 23.232C34.5009 26.24 34.9329 28.368 35.7969 29.616C36.6609 30.832 37.8929 31.44 39.4929 31.44C40.0369 31.44 40.5489 31.376 41.0289 31.248C41.5409 31.12 42.0209 30.944 42.4689 30.72V14.16ZM68.6671 35.28C68.2511 35.44 67.7391 35.6 67.1311 35.76C66.5551 35.888 65.9311 36 65.2591 36.096C64.6191 36.224 63.9631 36.32 63.2911 36.384C62.6511 36.48 62.0591 36.528 61.5151 36.528C60.2031 36.528 59.0031 36.368 57.9151 36.048C56.8271 35.76 55.8991 35.232 55.1311 34.464C54.3631 33.696 53.7711 32.656 53.3551 31.344C52.9391 30 52.7311 28.32 52.7311 26.304V10.8H56.8591V26.16C56.8591 28.624 57.2271 30.368 57.9631 31.392C58.7311 32.384 59.8831 32.88 61.4191 32.88C61.9311 32.88 62.4431 32.864 62.9551 32.832C63.4671 32.768 63.9951 32.656 64.5391 32.496V10.8H68.6671V35.28ZM79.2976 36H75.1696V10.8H79.2976V36ZM77.2336 6.336C76.4976 6.336 75.8576 6.096 75.3136 5.616C74.8016 5.104 74.5456 4.432 74.5456 3.6C74.5456 2.768 74.8016 2.112 75.3136 1.632C75.8576 1.12 76.4976 0.863997 77.2336 0.863997C77.9696 0.863997 78.5936 1.12 79.1056 1.632C79.6496 2.112 79.9216 2.768 79.9216 3.6C79.9216 4.432 79.6496 5.104 79.1056 5.616C78.5936 6.096 77.9696 6.336 77.2336 6.336ZM89.6746 10.8H96.0106V14.352H89.6746V28.224C89.6746 29.952 89.9786 31.168 90.5866 31.872C91.2266 32.544 92.0746 32.88 93.1306 32.88C93.6746 32.88 94.1866 32.8 94.6666 32.64C95.1786 32.48 95.6106 32.288 95.9626 32.064L96.7786 35.376C95.4666 36.144 94.0746 36.528 92.6026 36.528C90.2346 36.528 88.4586 35.872 87.2746 34.56C86.1226 33.216 85.5466 31.008 85.5466 27.936V4.032L89.6746 3.312V10.8ZM100.68 11.328C101.512 10.976 102.392 10.704 103.32 10.512C104.248 10.288 105.256 10.176 106.344 10.176C108.584 10.176 110.408 10.88 111.816 12.288C113.224 13.664 113.928 15.824 113.928 18.768V35.472C112.776 35.792 111.592 36.048 110.376 36.24C109.192 36.432 108.024 36.528 106.872 36.528C105.72 36.528 104.632 36.384 103.608 36.096C102.616 35.808 101.736 35.344 100.968 34.704C100.232 34.064 99.6405 33.264 99.1925 32.304C98.7445 31.312 98.5205 30.112 98.5205 28.704C98.5205 27.392 98.7125 26.256 99.0965 25.296C99.5125 24.304 100.072 23.488 100.776 22.848C101.48 22.176 102.312 21.68 103.272 21.36C104.232 21.008 105.272 20.832 106.392 20.832C107.448 20.832 108.616 20.96 109.896 21.216V18.912C109.896 17.056 109.528 15.76 108.792 15.024C108.088 14.288 107.064 13.92 105.72 13.92C104.984 13.92 104.28 14 103.608 14.16C102.968 14.288 102.28 14.512 101.544 14.832L100.68 11.328ZM102.648 28.656C102.648 30.128 103.032 31.216 103.8 31.92C104.568 32.624 105.656 32.976 107.064 32.976C107.928 32.976 108.872 32.864 109.896 32.64V24.624C108.936 24.368 107.992 24.24 107.064 24.24C106.456 24.24 105.88 24.32 105.336 24.48C104.792 24.608 104.312 24.848 103.896 25.2C103.512 25.52 103.208 25.968 102.984 26.544C102.76 27.088 102.648 27.792 102.648 28.656ZM131.045 14.544C130.021 14.096 128.869 13.872 127.589 13.872C126.405 13.872 125.301 14.08 124.277 14.496V36H120.149V11.904C121.077 11.456 122.133 11.088 123.317 10.8C124.533 10.48 125.861 10.32 127.301 10.32C128.069 10.32 128.837 10.368 129.605 10.464C130.373 10.56 131.093 10.736 131.765 10.992L131.045 14.544ZM138.443 33.072C139.659 33.072 140.571 32.736 141.179 32.064C141.819 31.36 142.139 30.448 142.139 29.328C142.139 28.624 142.011 28.032 141.755 27.552C141.499 27.04 141.163 26.592 140.747 26.208C140.331 25.824 139.851 25.488 139.307 25.2C138.763 24.88 138.219 24.544 137.675 24.192C137.131 23.872 136.603 23.504 136.091 23.088C135.579 22.64 135.115 22.144 134.699 21.6C134.315 21.024 133.995 20.384 133.739 19.68C133.515 18.944 133.403 18.096 133.403 17.136C133.403 15.056 134.043 13.376 135.323 12.096C136.635 10.816 138.395 10.176 140.603 10.176C141.531 10.176 142.411 10.304 143.243 10.56C144.075 10.784 144.763 11.04 145.307 11.328L144.395 14.64C143.819 14.32 143.243 14.08 142.667 13.92C142.091 13.76 141.467 13.68 140.795 13.68C139.771 13.68 138.955 13.984 138.347 14.592C137.739 15.168 137.435 16.016 137.435 17.136C137.435 17.776 137.547 18.336 137.771 18.816C137.995 19.264 138.283 19.68 138.635 20.064C139.019 20.416 139.435 20.752 139.883 21.072C140.363 21.392 140.859 21.696 141.371 21.984C141.979 22.336 142.571 22.72 143.147 23.136C143.755 23.552 144.283 24.048 144.731 24.624C145.211 25.168 145.595 25.824 145.883 26.592C146.171 27.328 146.315 28.224 146.315 29.28C146.315 31.488 145.659 33.264 144.347 34.608C143.067 35.952 141.179 36.624 138.683 36.624C137.403 36.624 136.251 36.448 135.227 36.096C134.203 35.744 133.435 35.424 132.923 35.136L133.787 31.728C134.267 31.984 134.907 32.272 135.707 32.592C136.539 32.912 137.451 33.072 138.443 33.072Z" fill="white"/>
</svg>
